<svg xmlns="http://www.w3.org/2000/svg" width="32" height="32" viewBox="0 0 32 32">
  <g id="Android" transform="translate(-5493 150)">
    <rect id="Rectangle_114" data-name="Rectangle 114" width="32" height="32" transform="translate(5493 -150)" fill="none"/>
    <g id="android_1_" data-name="android (1)" transform="translate(5496.4 -146.491)">
      <g id="Path_23" data-name="Path 23" transform="translate(0.462 -0.637)" fill="#fff">
        <path d="M 17.97385597229004 21.56706237792969 L 5.795076370239258 21.56706237792969 C 5.444705963134766 21.56706237792969 5.199995994567871 21.2851619720459 5.199995994567871 20.88154220581055 L 5.199995994567871 8.585521697998047 C 5.199995994567871 8.167052268981934 5.552446365356445 7.900002002716064 5.795076370239258 7.900002002716064 L 17.97385597229004 7.900002002716064 C 18.32422637939453 7.900002002716064 18.56893539428711 8.181901931762695 18.56893539428711 8.585521697998047 L 18.56893539428711 20.88154220581055 C 18.56893539428711 21.16105270385742 18.33711624145508 21.56706237792969 17.97385597229004 21.56706237792969 Z M 6.390146255493164 20.19602203369141 L 17.37878608703613 20.19602203369141 L 17.37878608703613 9.271052360534668 L 6.390146255493164 9.271052360534668 L 6.390146255493164 20.19602203369141 Z" stroke="none"/>
        <path d="M 17.97385597229004 21.46706199645996 C 18.27090644836426 21.46706199645996 18.46893692016602 21.11575126647949 18.46893692016602 20.88154220581055 L 18.46893692016602 8.585521697998047 C 18.46893692016602 8.234211921691895 18.27090644836426 8.000001907348633 17.97385597229004 8.000001907348633 L 5.795076370239258 8.000001907348633 C 5.597046375274658 8.000001907348633 5.299996376037598 8.234211921691895 5.299996376037598 8.585521697998047 L 5.299996376037598 20.88154220581055 C 5.299996376037598 21.23285102844238 5.498026371002197 21.46706199645996 5.795076370239258 21.46706199645996 L 17.97385597229004 21.46706199645996 M 6.290146350860596 9.171051979064941 L 17.47878646850586 9.171051979064941 L 17.47878646850586 20.29602241516113 L 6.290146350860596 20.29602241516113 L 6.290146350860596 9.171051979064941 M 17.97385597229004 21.66706275939941 L 5.795076370239258 21.66706275939941 C 5.385826110839844 21.66706275939941 5.099996089935303 21.34404182434082 5.099996089935303 20.88154220581055 L 5.099996089935303 8.585521697998047 C 5.099996089935303 8.143132209777832 5.47364616394043 7.800002098083496 5.795076370239258 7.800002098083496 L 17.97385597229004 7.800002098083496 C 18.38310623168945 7.800002098083496 18.66893577575684 8.123022079467773 18.66893577575684 8.585521697998047 L 18.66893577575684 20.88154220581055 C 18.66893577575684 21.20955276489258 18.40450668334961 21.66706275939941 17.97385597229004 21.66706275939941 Z M 6.490146160125732 20.09602165222168 L 17.27878570556641 20.09602165222168 L 17.27878570556641 9.371051788330078 L 6.490146160125732 9.371051788330078 L 6.490146160125732 20.09602165222168 Z" stroke="none" fill="#fff"/>
      </g>
      <g id="Path_24" data-name="Path 24" transform="translate(0.462 0.258)" fill="#fff">
        <path d="M 17.99113845825195 10.29734230041504 L 5.795747756958008 10.29734230041504 C 5.5451979637146 10.29734230041504 5.199997901916504 9.900121688842773 5.199997901916504 9.611822128295898 C 5.199997901916504 7.549252033233643 5.877438068389893 5.613222122192383 7.107518196105957 4.16038179397583 C 8.341657638549805 2.702751874923706 9.988508224487305 1.900001883506775 11.74471759796143 1.900001883506775 L 12.14131832122803 1.900001883506775 C 13.89752769470215 1.900001883506775 15.54437828063965 2.702751874923706 16.77851867675781 4.16038179397583 C 18.00859832763672 5.613222122192383 18.68603706359863 7.549252033233643 18.68603706359863 9.611822128295898 L 18.68603706359863 9.632122039794922 L 18.67812728881836 9.650801658630371 C 18.55326843261719 9.945752143859863 18.33271789550781 10.29734230041504 17.99113845825195 10.29734230041504 Z M 6.497672557830811 8.926291465759277 L 17.48430824279785 8.926291465759277 C 17.14662551879883 5.694582939147949 14.9079532623291 3.27105188369751 12.24046802520752 3.27105188369751 L 11.84386825561523 3.27105188369751 C 9.068171501159668 3.27105188369751 6.737557888031006 5.746584415435791 6.497672557830811 8.926291465759277 Z" stroke="none"/>
        <path d="M 17.99113845825195 10.19734191894531 C 18.28858757019043 10.19734191894531 18.48688888549805 9.84603214263916 18.58603858947754 9.611822128295898 C 18.58603858947754 5.396041870117188 15.71069812774658 2.000001907348633 12.14131832122803 2.000001907348633 L 11.74471759796143 2.000001907348633 C 8.175337791442871 2.000001907348633 5.299997806549072 5.396041870117188 5.299997806549072 9.611822128295898 C 5.299997806549072 9.84603214263916 5.597447872161865 10.19734191894531 5.795747756958008 10.19734191894531 L 17.99113845825195 10.19734191894531 M 11.84386825561523 3.171051979064941 L 12.24046802520752 3.171051979064941 C 15.01665782928467 3.171051979064941 17.29709815979004 5.747352123260498 17.59453773498535 9.026291847229004 L 6.390647888183594 9.026291847229004 C 6.588947772979736 5.747352123260498 8.968527793884277 3.171051979064941 11.84386825561523 3.171051979064941 M 17.99113845825195 10.39734172821045 L 5.795747756958008 10.39734172821045 C 5.466487884521484 10.39734172821045 5.099997997283936 9.929121971130371 5.099997997283936 9.611822128295898 C 5.099997997283936 7.525611877441406 5.785848140716553 5.566641807556152 7.031198024749756 4.095761775970459 C 8.284647941589355 2.61532187461853 9.95860767364502 1.800001859664917 11.74471759796143 1.800001859664917 L 12.14131832122803 1.800001859664917 C 13.92742824554443 1.800001859664917 15.6013879776001 2.61532187461853 16.85483741760254 4.095761775970459 C 18.10018730163574 5.566641807556152 18.78603744506836 7.525611877441406 18.78603744506836 9.611822128295898 L 18.78603744506836 9.652411460876465 L 18.77021789550781 9.689791679382324 C 18.57425880432129 10.15267181396484 18.30485725402832 10.39734172821045 17.99113845825195 10.39734172821045 Z M 6.606329917907715 8.826292037963867 L 17.37253379821777 8.826292037963867 C 17.00163269042969 5.700942516326904 14.82610702514648 3.371052026748657 12.24046802520752 3.371052026748657 L 11.84386825561523 3.371052026748657 C 9.151643753051758 3.371052026748657 6.885814666748047 5.750307559967041 6.606329917907715 8.826292037963867 Z" stroke="none" fill="#fff"/>
      </g>
      <g id="Path_25" data-name="Path 25" transform="translate(0 0)" fill="#fff">
        <path d="M 20.22787284851074 17.33047676086426 C 19.07995223999023 17.33047676086426 18.14604377746582 16.43680763244629 18.14604377746582 15.33833694458008 L 18.14604377746582 9.761496543884277 C 18.14604377746582 9.409446716308594 18.4016227722168 9.163566589355469 18.7675724029541 9.163566589355469 C 19.13352203369141 9.163566589355469 19.38911247253418 9.409446716308594 19.38911247253418 9.761496543884277 L 19.38911247253418 15.33833694458008 C 19.38911247253418 15.77740669250488 19.76538276672363 16.13461685180664 20.22787284851074 16.13461685180664 C 20.69036293029785 16.13461685180664 21.0666332244873 15.77740669250488 21.0666332244873 15.33833694458008 L 21.0666332244873 9.761496543884277 C 21.0666332244873 9.432626724243164 20.70793342590332 9.064806938171387 20.22787284851074 9.064806938171387 L 16.99436378479004 9.064806938171387 C 16.6284122467041 9.064806938171387 16.37282371520996 8.818926811218262 16.37282371520996 8.466876983642578 C 16.37282371520996 8.114827156066895 16.6284122467041 7.86894702911377 16.99436378479004 7.86894702911377 L 20.22787284851074 7.86894702911377 C 21.37579345703125 7.86894702911377 22.30970191955566 8.762617111206055 22.30970191955566 9.861086845397949 L 22.30970191955566 15.43792724609375 C 22.30970191955566 16.5168571472168 21.41471290588379 17.33047676086426 20.22787284851074 17.33047676086426 Z M 4.581832885742188 17.33047676086426 C 3.433912754058838 17.33047676086426 2.500002861022949 16.43680763244629 2.500002861022949 15.33833694458008 L 2.500002861022949 9.761496543884277 C 2.500002861022949 8.663026809692383 3.433912754058838 7.769356727600098 4.581832885742188 7.769356727600098 L 7.815342903137207 7.769356727600098 C 8.181292533874512 7.769356727600098 8.436882972717285 8.015236854553223 8.436882972717285 8.367286682128906 C 8.436882972717285 8.702746391296387 8.199253082275391 9.064806938171387 7.815342903137207 9.064806938171387 L 4.581832885742188 9.064806938171387 C 4.101772785186768 9.064806938171387 3.743072748184204 9.432626724243164 3.743072748184204 9.761496543884277 L 3.743072748184204 15.33833694458008 C 3.743072748184204 15.77740669250488 4.119342803955078 16.13461685180664 4.581832885742188 16.13461685180664 C 5.044322967529297 16.13461685180664 5.420592784881592 15.77740669250488 5.420592784881592 15.33833694458008 L 5.420592784881592 9.761496543884277 C 5.420592784881592 9.409446716308594 5.676182746887207 9.163566589355469 6.04213285446167 9.163566589355469 C 6.408082962036133 9.163566589355469 6.663662910461426 9.409446716308594 6.663662910461426 9.761496543884277 L 6.663662910461426 15.33833694458008 L 6.663662910461426 15.3430871963501 L 6.663212776184082 15.34781646728516 C 6.553822994232178 16.49664688110352 5.678472995758057 17.33047676086426 4.581832885742188 17.33047676086426 Z M 15.32544326782227 6.47555685043335 C 15.25776290893555 6.47555685043335 15.17458248138428 6.449086666107178 15.08651256561279 6.421056747436523 C 15.02339267730713 6.400976657867432 14.94484329223633 6.375977039337158 14.90822315216064 6.375977039337158 L 14.8681526184082 6.375977039337158 L 14.83916282653809 6.348306655883789 C 14.70391273498535 6.21916675567627 14.70391273498535 6.083296775817871 14.70391273498535 5.877626895904541 C 14.70391273498535 5.815616607666016 14.72787284851074 5.760406970977783 14.75104331970215 5.707006931304932 C 14.77915287017822 5.64220666885376 14.80822277069092 5.575196743011475 14.80822277069092 5.479286670684814 L 14.80822277069092 5.436506748199463 L 14.83916282653809 5.406956672668457 C 14.95875263214111 5.292786598205566 15.11292266845703 5.229907035827637 15.27329254150391 5.229907035827637 C 15.43366241455078 5.229907035827637 15.5878324508667 5.292786598205566 15.70742321014404 5.406956672668457 C 15.81415271759033 5.508846759796143 15.94698333740234 5.635656833648682 15.94698333740234 5.877626895904541 C 15.94698333740234 6.016106605529785 15.82050323486328 6.240336894989014 15.70742321014404 6.348306655883789 L 15.67843246459961 6.375977039337158 L 15.63836288452148 6.375977039337158 C 15.60885334014893 6.375977039337158 15.56622314453125 6.396327018737793 15.52499294281006 6.416007041931152 C 15.46651268005371 6.443916797637939 15.40024280548096 6.47555685043335 15.32544326782227 6.47555685043335 Z M 9.588562965393066 6.47555685043335 C 9.357267379760742 6.47555685043335 9.231903076171875 6.371317863464355 9.125899314880371 6.271193027496338 C 8.967043876647949 6.232466697692871 8.967032432556152 5.987348079681396 8.967032432556152 5.877626895904541 C 8.967032432556152 5.7727370262146 8.967032432556152 5.653856754302979 9.082742691040039 5.432896614074707 L 9.090373039245605 5.418316841125488 L 9.102272987365723 5.406956672668457 C 9.22186279296875 5.292786598205566 9.376043319702148 5.229907035827637 9.536413192749023 5.229907035827637 C 9.696783065795898 5.229907035827637 9.850953102111816 5.292786598205566 9.970542907714844 5.406956672668457 C 10.07727241516113 5.508846759796143 10.21010303497314 5.635656833648682 10.21010303497314 5.877626895904541 C 10.21010303497314 6.016106605529785 10.08362293243408 6.240336894989014 9.970542907714844 6.348306655883789 L 9.941553115844727 6.375977039337158 L 9.901482582092285 6.375977039337158 C 9.871973037719727 6.375977039337158 9.829342842102051 6.396327018737793 9.788112640380859 6.416007041931152 C 9.729633331298828 6.443916797637939 9.663362503051758 6.47555685043335 9.588562965393066 6.47555685043335 Z M 16.15990257263184 2.392516851425171 C 16.05386734008789 2.392516851425171 15.92300415039062 2.392515182495117 15.7951021194458 2.280943632125854 C 15.61964130401611 2.218289852142334 15.54829692840576 2.105384588241577 15.51939296722412 2.02005672454834 C 15.46363258361816 1.855426788330078 15.51381301879883 1.648916840553284 15.66068267822266 1.438576817512512 L 15.66229248046875 1.436266779899597 L 15.66403293609619 1.434056878089905 L 16.28987312316895 0.6373668313026428 L 16.29429244995117 0.6317468285560608 L 16.29946327209473 0.6268068552017212 C 16.45644378662109 0.4769368171691895 16.64820289611816 0.390986829996109 16.82559204101562 0.390986829996109 C 16.95606231689453 0.390986829996109 17.07437324523926 0.438096821308136 17.16772270202637 0.5272168517112732 C 17.3259334564209 0.6782768368721008 17.41668319702148 0.863696813583374 17.41668319702148 1.035926818847656 C 17.41668319702148 1.161020517349243 17.36855506896973 1.27422297000885 17.27740669250488 1.363782167434692 L 16.66115379333496 2.148266553878784 C 16.52740097045898 2.392534971237183 16.27038383483887 2.392516851425171 16.15990257263184 2.392516851425171 Z M 8.649803161621094 2.392516851425171 C 8.539321899414062 2.392516851425171 8.282305717468262 2.392534971237183 8.148551940917969 2.148266553878784 L 7.528092861175537 1.358426809310913 L 7.522412776947021 1.351196885108948 L 7.518142700195312 1.34304678440094 C 7.400842666625977 1.119066834449768 7.389563083648682 0.7682168483734131 7.641983032226562 0.5272168517112732 C 7.73533296585083 0.438096821308136 7.85364294052124 0.390986829996109 7.984112739562988 0.390986829996109 C 8.161502838134766 0.390986829996109 8.353262901306152 0.4769368171691895 8.510242462158203 0.6268068552017212 L 8.515413284301758 0.6317468285560608 L 8.519832611083984 0.6373668313026428 L 9.145672798156738 1.434056878089905 L 9.14741325378418 1.436266779899597 L 9.149023056030273 1.438576817512512 C 9.267473220825195 1.608216881752014 9.30793285369873 1.795536875724792 9.26295280456543 1.966036796569824 C 9.227104187011719 2.101941108703613 9.139063835144043 2.214039325714111 9.020193099975586 2.275993824005127 C 8.890518188476562 2.39252495765686 8.757388114929199 2.392516851425171 8.649803161621094 2.392516851425171 Z" stroke="none"/>
        <path d="M 20.22787284851074 17.23047637939453 C 21.37525367736816 17.23047637939453 22.20970344543457 16.43378639221191 22.20970344543457 15.43792724609375 L 22.20970344543457 9.861086845397949 C 22.20970344543457 8.765636444091797 21.27094268798828 7.968946933746338 20.22787284851074 7.968946933746338 L 16.99436378479004 7.968946933746338 C 16.68144226074219 7.968946933746338 16.47282218933105 8.168116569519043 16.47282218933105 8.466876983642578 C 16.47282218933105 8.765636444091797 16.68144226074219 8.96480655670166 16.99436378479004 8.96480655670166 L 20.22787284851074 8.96480655670166 C 20.74941253662109 8.96480655670166 21.16663360595703 9.363157272338867 21.16663360595703 9.761496543884277 L 21.16663360595703 15.33833694458008 C 21.16663360595703 15.83626651763916 20.74941253662109 16.23461723327637 20.22787284851074 16.23461723327637 C 19.70634269714355 16.23461723327637 19.28911209106445 15.83626651763916 19.28911209106445 15.33833694458008 L 19.28911209106445 9.761496543884277 C 19.28911209106445 9.462737083435059 19.08050346374512 9.263566970825195 18.7675724029541 9.263566970825195 C 18.45465278625488 9.263566970825195 18.24604225158691 9.462737083435059 18.24604225158691 9.761496543884277 L 18.24604225158691 15.33833694458008 C 18.24604225158691 16.43378639221191 19.1848030090332 17.23047637939453 20.22787284851074 17.23047637939453 M 4.581832885742188 17.23047637939453 C 5.624902725219727 17.23047637939453 6.459352970123291 16.43378639221191 6.563663005828857 15.33833694458008 L 6.563663005828857 9.761496543884277 C 6.563663005828857 9.462737083435059 6.355052947998047 9.263566970825195 6.04213285446167 9.263566970825195 C 5.729212760925293 9.263566970825195 5.52059268951416 9.462737083435059 5.52059268951416 9.761496543884277 L 5.52059268951416 15.33833694458008 C 5.52059268951416 15.83626651763916 5.103363037109375 16.23461723327637 4.581832885742188 16.23461723327637 C 4.060292720794678 16.23461723327637 3.643072843551636 15.83626651763916 3.643072843551636 15.33833694458008 L 3.643072843551636 9.761496543884277 C 3.643072843551636 9.363146781921387 4.060292720794678 8.96480655670166 4.581832885742188 8.96480655670166 L 7.815342903137207 8.96480655670166 C 8.128262519836426 8.96480655670166 8.336882591247559 8.666047096252441 8.336882591247559 8.367286682128906 C 8.336882591247559 8.068527221679688 8.128262519836426 7.869356632232666 7.815342903137207 7.869356632232666 L 4.581832885742188 7.869356632232666 C 3.434452772140503 7.869356632232666 2.600002765655518 8.765636444091797 2.600002765655518 9.761496543884277 L 2.600002765655518 15.33833694458008 C 2.600002765655518 16.43378639221191 3.538762807846069 17.23047637939453 4.581832885742188 17.23047637939453 M 15.32544326782227 6.375556945800781 C 15.42975330352783 6.375556945800781 15.5340633392334 6.275976657867432 15.63836288452148 6.275976657867432 C 15.74267292022705 6.176386833190918 15.84698295593262 5.977216720581055 15.84698295593262 5.877626895904541 C 15.84698295593262 5.678456783294678 15.74267292022705 5.578866958618164 15.63836288452148 5.479286670684814 C 15.42975234985352 5.280107021331787 15.11683177947998 5.280107021331787 14.90822315216064 5.479286670684814 C 14.90822315216064 5.678456783294678 14.80391311645508 5.778046607971191 14.80391311645508 5.877626895904541 C 14.80391311645508 6.076807022094727 14.80391311645508 6.176386833190918 14.90822315216064 6.275976657867432 C 15.01252269744873 6.275976657867432 15.22114276885986 6.375556945800781 15.32544326782227 6.375556945800781 M 9.588562965393066 6.375556945800781 C 9.692873001098633 6.375556945800781 9.797183036804199 6.275976657867432 9.901482582092285 6.275976657867432 C 10.00579261779785 6.176386833190918 10.11010265350342 5.977216720581055 10.11010265350342 5.877626895904541 C 10.11010265350342 5.678456783294678 10.00579261779785 5.578866958618164 9.901482582092285 5.479286670684814 C 9.692873954772949 5.280107498168945 9.379951477050781 5.280106544494629 9.171333312988281 5.479286670684814 C 9.067032814025879 5.678456783294678 9.067032814025879 5.778046607971191 9.067032814025879 5.877626895904541 C 9.067032814025879 5.977216720581055 9.067032814025879 6.176386833190918 9.171333312988281 6.176386833190918 C 9.275642395019531 6.275976657867432 9.379952430725098 6.375556945800781 9.588562965393066 6.375556945800781 M 16.15990257263184 2.292516708374023 C 16.26421356201172 2.292516708374023 16.47282218933105 2.292516708374023 16.57713317871094 2.093346834182739 L 17.20297241210938 1.296656847000122 C 17.41158294677734 1.097476840019226 17.30728340148926 0.7987267971038818 17.09866333007812 0.5995468497276306 C 16.89005661010742 0.40037801861763 16.57713508605957 0.4999660849571228 16.3685131072998 0.6991368532180786 L 15.74267292022705 1.495826840400696 C 15.5340633392334 1.794586777687073 15.5340633392334 2.093346834182739 15.84698295593262 2.19292688369751 C 15.95129299163818 2.292516708374023 16.05559349060059 2.292516708374023 16.15990257263184 2.292516708374023 M 8.649803161621094 2.292516708374023 C 8.75411319732666 2.292516708374023 8.858412742614746 2.292516708374023 8.962722778320312 2.19292688369751 C 9.171333312988281 2.093346834182739 9.275642395019531 1.794586777687073 9.067032814025879 1.495826840400696 L 8.441192626953125 0.6991368532180786 C 8.232571601867676 0.4999666810035706 7.919652462005615 0.400376945734024 7.711042881011963 0.5995468497276306 C 7.50242280960083 0.7987267971038818 7.50242280960083 1.097476840019226 7.606732845306396 1.296656847000122 L 8.232572555541992 2.093346834182739 C 8.336882591247559 2.292516708374023 8.545493125915527 2.292516708374023 8.649803161621094 2.292516708374023 M 20.22787284851074 17.43047714233398 C 19.02480316162109 17.43047714233398 18.04604339599609 16.49194717407227 18.04604339599609 15.33833694458008 L 18.04604339599609 9.761496543884277 C 18.04604339599609 9.496463775634766 18.16945266723633 9.282987594604492 18.37106704711914 9.164806365966797 L 16.99436378479004 9.164806365966797 C 16.56953239440918 9.164806365966797 16.27282333374023 8.877806663513184 16.27282333374023 8.466876983642578 C 16.27282333374023 8.055946350097656 16.56953239440918 7.768946647644043 16.99436378479004 7.768946647644043 L 20.22787284851074 7.768946647644043 C 21.43094253540039 7.768946647644043 22.40970230102539 8.707476615905762 22.40970230102539 9.861086845397949 L 22.40970230102539 15.43792724609375 C 22.40970230102539 16.57386589050293 21.47172355651855 17.43047714233398 20.22787284851074 17.43047714233398 Z M 19.16408157348633 9.164806365966797 C 19.36569786071777 9.282987594604492 19.48911285400391 9.496463775634766 19.48911285400391 9.761496543884277 L 19.48911285400391 15.33833694458008 C 19.48911285400391 15.7287769317627 19.81361198425293 16.03461647033691 20.22787284851074 16.03461647033691 C 20.64213371276855 16.03461647033691 20.96663284301758 15.7287769317627 20.96663284301758 15.33833694458008 L 20.96663284301758 9.761496543884277 C 20.96663284301758 9.479826927185059 20.65069198608398 9.164806365966797 20.22787284851074 9.164806365966797 L 19.16408157348633 9.164806365966797 Z M 4.581832885742188 17.43047714233398 C 3.37876296043396 17.43047714233398 2.400002956390381 16.49194717407227 2.400002956390381 15.33833694458008 L 2.400002956390381 9.761496543884277 C 2.400002956390381 8.607887268066406 3.37876296043396 7.669356822967529 4.581832885742188 7.669356822967529 L 7.815342903137207 7.669356822967529 C 8.24017333984375 7.669356822967529 8.536882400512695 7.956357002258301 8.536882400512695 8.367286682128906 C 8.536882400512695 8.750836372375488 8.261022567749023 9.164806365966797 7.815342903137207 9.164806365966797 L 6.438639640808105 9.164806365966797 C 6.640252113342285 9.282987594604492 6.763662815093994 9.496463775634766 6.763662815093994 9.761496543884277 L 6.762763023376465 15.35729694366455 C 6.648372650146484 16.5585765838623 5.731163024902344 17.43047714233398 4.581832885742188 17.43047714233398 Z M 4.581832885742188 9.164806365966797 C 4.159012794494629 9.164806365966797 3.843072891235352 9.479826927185059 3.843072891235352 9.761496543884277 L 3.843072891235352 15.33833694458008 C 3.843072891235352 15.7287769317627 4.167572975158691 16.03461647033691 4.581832885742188 16.03461647033691 C 4.996092796325684 16.03461647033691 5.320592880249023 15.7287769317627 5.320592880249023 15.33833694458008 L 5.320592880249023 9.761496543884277 C 5.320592880249023 9.496463775634766 5.444007873535156 9.282987594604492 5.645623683929443 9.164806365966797 L 4.581832885742188 9.164806365966797 Z M 15.32544326782227 6.575556755065918 C 15.24223327636719 6.575556755065918 15.15186309814453 6.546796798706055 15.05618286132812 6.51634693145752 C 15.01006317138672 6.5016770362854 14.9328727722168 6.477107048034668 14.90737247467041 6.475966930389404 L 14.82722282409668 6.475966930389404 L 14.77011299133301 6.420636653900146 C 14.60391330718994 6.261956691741943 14.60391330718994 6.092346668243408 14.60391330718994 5.877626895904541 C 14.60391330718994 5.794867038726807 14.63334274291992 5.727036952972412 14.65930271148682 5.667206764221191 C 14.6855525970459 5.606696605682373 14.70822334289551 5.554446697235107 14.70822334289551 5.479286670684814 L 14.70822334289551 5.393716812133789 L 14.77011299133301 5.3346266746521 C 14.90838241577148 5.202616691589355 15.087082862854 5.12990665435791 15.27329254150391 5.12990665435791 C 15.45951271057129 5.12990665435791 15.63821315765381 5.202616691589355 15.77648258209229 5.334636688232422 C 15.89063262939453 5.443606853485107 16.04698371887207 5.59287691116333 16.04698371887207 5.877626895904541 C 16.04698371887207 6.047946929931641 15.90711307525635 6.295907020568848 15.77647304534912 6.420636653900146 L 15.71850299835205 6.475976943969727 L 15.63836288452148 6.475976943969727 C 15.62796306610107 6.477666854858398 15.59192276000977 6.494866847991943 15.5680627822876 6.506257057189941 C 15.50338268280029 6.537127017974854 15.42288303375244 6.575556755065918 15.32544326782227 6.575556755065918 Z M 9.588562965393066 6.575556755065918 C 9.335227966308594 6.575556755065918 9.185550689697266 6.462331295013428 9.076672554016113 6.362020969390869 C 8.867045402526855 6.292120456695557 8.867033004760742 5.986575603485107 8.867033004760742 5.877626895904541 C 8.867033004760742 5.766976833343506 8.867033004760742 5.629256725311279 8.994153022766113 5.386507034301758 L 9.00942325592041 5.357357025146484 L 9.033223152160645 5.3346266746521 C 9.171492576599121 5.202616691589355 9.350202560424805 5.12990665435791 9.536413192749023 5.12990665435791 C 9.72263240814209 5.12990665435791 9.901332855224609 5.202616691589355 10.0396032333374 5.334636688232422 C 10.15375328063965 5.443606853485107 10.31010246276855 5.59287691116333 10.31010246276855 5.877626895904541 C 10.31010246276855 6.047946929931641 10.17023277282715 6.295907020568848 10.03959274291992 6.420636653900146 L 9.981622695922852 6.475976943969727 L 9.901482582092285 6.475976943969727 C 9.891082763671875 6.477666854858398 9.855042457580566 6.494866847991943 9.831182479858398 6.506257057189941 C 9.76650333404541 6.537127017974854 9.686002731323242 6.575556755065918 9.588562965393066 6.575556755065918 Z M 16.15990257263184 2.492516756057739 C 16.05318069458008 2.492516756057739 15.89583969116211 2.492520332336426 15.74403285980225 2.368663311004639 C 15.5437068939209 2.291462182998657 15.45976734161377 2.155713796615601 15.4246826171875 2.052136898040771 C 15.35846328735352 1.856626868247986 15.41316318511963 1.618396878242493 15.57869243621826 1.381326794624329 L 15.58539295196533 1.372276782989502 L 16.23040199279785 0.554476797580719 C 16.40580368041992 0.3870268166065216 16.62274360656738 0.2909868359565735 16.82559204101562 0.2909868359565735 C 16.98229217529297 0.2909868359565735 17.12447357177734 0.3476668298244476 17.23678207397461 0.4548968374729156 C 17.41466331481934 0.6247268319129944 17.51668357849121 0.8365068435668945 17.51668357849121 1.035926818847656 C 17.51668357849121 1.186302065849304 17.45992088317871 1.322326898574829 17.35231399536133 1.43031370639801 L 16.74467086791992 2.20383882522583 C 16.5815315246582 2.492507457733154 16.2762508392334 2.492516756057739 16.15990257263184 2.492516756057739 Z M 8.649803161621094 2.492516756057739 C 8.533454895019531 2.492516756057739 8.22817325592041 2.492507457733154 8.065034866333008 2.20383882522583 L 7.438092708587646 1.405736804008484 L 7.429563045501709 1.38944685459137 C 7.295433044433594 1.133326768875122 7.283082962036133 0.7316268086433411 7.572932720184326 0.4548868238925934 C 7.685252666473389 0.3476668298244476 7.827432632446289 0.2909868359565735 7.984112739562988 0.2909868359565735 C 8.186963081359863 0.2909868359565735 8.403903007507324 0.3870268166065216 8.579302787780762 0.554476797580719 L 8.598472595214844 0.5755868554115295 L 9.231013298034668 1.381326794624329 C 9.366562843322754 1.575456857681274 9.412242889404297 1.792166829109192 9.35964298248291 1.991546869277954 C 9.317704200744629 2.150527954101562 9.215731620788574 2.282677888870239 9.077563285827637 2.358695983886719 C 8.922128677368164 2.492509603500366 8.759311676025391 2.492516756057739 8.649803161621094 2.492516756057739 Z" stroke="none" fill="#fff"/>
      </g>
      <g id="Group_57" data-name="Group 57" transform="translate(6.901 18.636)">
        <g id="Path_26" data-name="Path 26" transform="translate(-7.3 -18.5)" fill="#fff">
          <path d="M 15.84866046905518 24.45524215698242 C 14.43751049041748 24.45524215698242 13.28946018218994 23.30719184875488 13.28946018218994 21.89604187011719 L 13.28946018218994 19.08552169799805 C 13.28946018218994 18.6819019317627 13.57136058807373 18.40000152587891 13.97498035430908 18.40000152587891 L 17.72233963012695 18.40000152587891 C 18.1259593963623 18.40000152587891 18.40785980224609 18.6819019317627 18.40785980224609 19.08552169799805 L 18.40785980224609 22.01314163208008 L 18.40785980224609 22.01768112182617 L 18.40744972229004 22.02219200134277 C 18.2834300994873 23.38652229309082 17.15946960449219 24.45524215698242 15.84866046905518 24.45524215698242 Z M 14.66050052642822 19.77105140686035 L 14.66050052642822 22.01314163208008 C 14.66050052642822 22.65719223022461 15.20460987091064 23.20130157470703 15.84866046905518 23.20130157470703 C 16.49270057678223 23.20130157470703 17.03680992126465 22.65719223022461 17.03680992126465 22.01314163208008 L 17.03680992126465 19.77105140686035 L 14.66050052642822 19.77105140686035 Z M 9.759200096130371 24.45524215698242 C 8.348050117492676 24.45524215698242 7.200000286102295 23.30719184875488 7.200000286102295 21.89604187011719 L 7.200000286102295 19.08552169799805 C 7.200000286102295 18.6819019317627 7.481900215148926 18.40000152587891 7.885520458221436 18.40000152587891 L 11.63288021087646 18.40000152587891 C 12.0365104675293 18.40000152587891 12.31840991973877 18.6819019317627 12.31840991973877 19.08552169799805 L 12.31840991973877 22.01314163208008 C 12.31840991973877 23.38254165649414 11.19427013397217 24.45524215698242 9.759200096130371 24.45524215698242 Z M 8.688150405883789 19.77105140686035 L 8.688150405883789 22.01314163208008 C 8.688150405883789 22.65719223022461 9.232260704040527 23.20130157470703 9.876310348510742 23.20130157470703 C 10.52035045623779 23.20130157470703 11.06446075439453 22.65719223022461 11.06446075439453 22.01314163208008 L 11.06446075439453 19.77105140686035 L 8.688150405883789 19.77105140686035 Z" stroke="none"/>
          <path d="M 15.84866046905518 24.3552417755127 C 17.13681030273438 24.3552417755127 18.19075965881348 23.30130195617676 18.30785942077637 22.01314163208008 L 18.30785942077637 19.08552169799805 C 18.30785942077637 18.73421096801758 18.07365036010742 18.50000190734863 17.72233963012695 18.50000190734863 L 13.97498035430908 18.50000190734863 C 13.62366008758545 18.50000190734863 13.38946056365967 18.73421096801758 13.38946056365967 19.08552169799805 L 13.38946056365967 21.89604187011719 C 13.38946056365967 23.30130195617676 14.5605001449585 24.3552417755127 15.84866046905518 24.3552417755127 M 14.5605001449585 19.67105102539062 L 17.13681030273438 19.67105102539062 L 17.13681030273438 22.01314163208008 C 17.13681030273438 22.71577262878418 16.55129051208496 23.30130195617676 15.84866046905518 23.30130195617676 C 15.14603042602539 23.30130195617676 14.5605001449585 22.71577262878418 14.5605001449585 22.01314163208008 L 14.5605001449585 19.67105102539062 M 9.759200096130371 24.3552417755127 C 11.16446018218994 24.3552417755127 12.21841049194336 23.30130195617676 12.21841049194336 22.01314163208008 L 12.21841049194336 19.08552169799805 C 12.21841049194336 18.73421096801758 11.9842004776001 18.50000190734863 11.63288021087646 18.50000190734863 L 7.885520458221436 18.50000190734863 C 7.534210205078125 18.50000190734863 7.300000190734863 18.73421096801758 7.300000190734863 19.08552169799805 L 7.300000190734863 21.89604187011719 C 7.300000190734863 23.30130195617676 8.471050262451172 24.3552417755127 9.759200096130371 24.3552417755127 M 8.588150024414062 19.67105102539062 L 11.16446018218994 19.67105102539062 L 11.16446018218994 22.01314163208008 C 11.16446018218994 22.71577262878418 10.57894039154053 23.30130195617676 9.876310348510742 23.30130195617676 C 9.173680305480957 23.30130195617676 8.588150024414062 22.71577262878418 8.588150024414062 22.01314163208008 L 8.588150024414062 19.67105102539062 M 15.84866046905518 24.55524253845215 C 14.38236999511719 24.55524253845215 13.18946075439453 23.36233139038086 13.18946075439453 21.89604187011719 L 13.18946075439453 19.08552169799805 C 13.18946075439453 18.62302207946777 13.51248073577881 18.30000114440918 13.97498035430908 18.30000114440918 L 17.72233963012695 18.30000114440918 C 18.18484115600586 18.30000114440918 18.50786018371582 18.62302207946777 18.50786018371582 19.08552169799805 L 18.50704002380371 22.03125190734863 C 18.37837982177734 23.44657135009766 17.21068000793457 24.55524253845215 15.84866046905518 24.55524253845215 Z M 14.76049995422363 19.87105178833008 L 14.76049995422363 22.01314163208008 C 14.76049995422363 22.60298156738281 15.25882053375244 23.1013011932373 15.84866046905518 23.1013011932373 C 16.43849945068359 23.1013011932373 16.93680953979492 22.60298156738281 16.93680953979492 22.01314163208008 L 16.93680953979492 19.87105178833008 L 14.76049995422363 19.87105178833008 Z M 9.759200096130371 24.55524253845215 C 8.292910575866699 24.55524253845215 7.100000381469727 23.36233139038086 7.100000381469727 21.89604187011719 L 7.100000381469727 19.08552169799805 C 7.100000381469727 18.62302207946777 7.423020362854004 18.30000114440918 7.885520458221436 18.30000114440918 L 11.63288021087646 18.30000114440918 C 12.09539031982422 18.30000114440918 12.4184103012085 18.62302207946777 12.4184103012085 19.08552169799805 L 12.4184103012085 22.01314163208008 C 12.4184103012085 23.43862152099609 11.25034999847412 24.55524253845215 9.759200096130371 24.55524253845215 Z M 8.788149833679199 19.87105178833008 L 8.788149833679199 22.01314163208008 C 8.788149833679199 22.60298156738281 9.286470413208008 23.1013011932373 9.876310348510742 23.1013011932373 C 10.46615028381348 23.1013011932373 10.9644603729248 22.60298156738281 10.9644603729248 22.01314163208008 L 10.9644603729248 19.87105178833008 L 8.788149833679199 19.87105178833008 Z" stroke="none" fill="#fff"/>
        </g>
      </g>
    </g>
  </g>
</svg>
