<svg xmlns="http://www.w3.org/2000/svg" width="11.642" height="11.642" viewBox="0 0 11.642 11.642">
  <g id="Close2" transform="translate(-184.529 -6.529)">
    <g id="Group_27" data-name="Group 27" transform="translate(184 6)">
      <path id="Path_5" data-name="Path 5" d="M1.066.529a.529.529,0,0,0-.377.908L5.6,6.35.689,11.263a.529.529,0,1,0,.748.749Q3.893,9.554,6.35,7.1q2.457,2.456,4.913,4.913a.529.529,0,1,0,.748-.749L7.1,6.35l4.913-4.913a.529.529,0,1,0-.748-.749Q8.807,3.146,6.35,5.6,3.893,3.145,1.437.688A.527.527,0,0,0,1.066.529Z" fill="#a7a7a7"/>
    </g>
  </g>
</svg>
