<svg xmlns="http://www.w3.org/2000/svg" width="32" height="32" viewBox="0 0 32 32">
  <g id="APIs" transform="translate(-5656 150)">
    <rect id="Rectangle_117" data-name="Rectangle 117" width="32" height="32" transform="translate(5656 -150)" fill="none"/>
    <g id="noun_API_410844" transform="translate(5647.035 -158.965)">
      <g id="Group_59" data-name="Group 59" transform="translate(12.965 12.965)">
        <g id="Group_58" data-name="Group 58">
          <path id="Path_33" data-name="Path 33" d="M36.592,22.98,34.173,22.4a9.479,9.479,0,0,0-.882-2.133l1.3-2.12a.486.486,0,0,0-.071-.6L32.381,15.41a.486.486,0,0,0-.6-.071l-2.12,1.3a9.495,9.495,0,0,0-2.133-.882l-.581-2.419a.486.486,0,0,0-.473-.373H23.453a.486.486,0,0,0-.473.373L22.4,15.757a9.5,9.5,0,0,0-2.133.882l-2.12-1.3a.485.485,0,0,0-.6.071L15.41,17.549a.486.486,0,0,0-.071.6l1.3,2.12a9.479,9.479,0,0,0-.882,2.133l-2.419.581a.486.486,0,0,0-.373.473v3.024a.486.486,0,0,0,.373.473l2.419.581a9.479,9.479,0,0,0,.882,2.133l-1.3,2.12a.486.486,0,0,0,.071.6l2.138,2.138a.485.485,0,0,0,.6.071l2.12-1.3a9.5,9.5,0,0,0,2.133.882l.581,2.419a.486.486,0,0,0,.473.373h3.024a.486.486,0,0,0,.473-.373l.581-2.419a9.5,9.5,0,0,0,2.133-.882l2.12,1.3a.485.485,0,0,0,.6-.071l2.138-2.138a.486.486,0,0,0,.071-.6l-1.3-2.12a9.479,9.479,0,0,0,.882-2.133l2.419-.581a.486.486,0,0,0,.373-.473V23.453A.486.486,0,0,0,36.592,22.98Zm-.6,3.113-2.235.536a.486.486,0,0,0-.452.371,8.525,8.525,0,0,1-1,2.419.484.484,0,0,0,.026.542l1.228,2-1.6,1.6-1.99-1.22a.487.487,0,0,0-.555-.034,8.528,8.528,0,0,1-2.419,1,.48.48,0,0,0-.365.427l-.542,2.259H23.836L23.3,33.759a.486.486,0,0,0-.371-.453,8.528,8.528,0,0,1-2.419-1,.485.485,0,0,0-.542.027l-2,1.228-1.6-1.6,1.22-1.99a.486.486,0,0,0,.034-.555,8.525,8.525,0,0,1-1-2.419.481.481,0,0,0-.427-.365l-2.26-.542V23.836l2.235-.536a.486.486,0,0,0,.452-.371,8.525,8.525,0,0,1,1-2.419.484.484,0,0,0-.026-.542l-1.228-2,1.6-1.6,1.989,1.219a.486.486,0,0,0,.556.035,8.523,8.523,0,0,1,2.419-1,.48.48,0,0,0,.365-.427l.542-2.259h2.258l.536,2.233a.486.486,0,0,0,.371.453,8.523,8.523,0,0,1,2.419,1,.484.484,0,0,0,.542-.027l2-1.228,1.6,1.6-1.22,1.99a.486.486,0,0,0-.034.555,8.525,8.525,0,0,1,1,2.419.481.481,0,0,0,.427.365l2.26.542Z" transform="translate(-12.965 -12.965)" fill="#fff" stroke="#fff" stroke-width="0.4"/>
          <path id="Path_34" data-name="Path 34" d="M31.242,40.277h-1.91a2.711,2.711,0,0,0-2.708,2.709V43.2H24.465v1.065h2.159v.211a2.711,2.711,0,0,0,2.708,2.709h1.91a.533.533,0,0,0,.533-.533V40.81A.533.533,0,0,0,31.242,40.277Zm-.533,5.839H29.332a1.645,1.645,0,0,1-1.643-1.643V42.986a1.645,1.645,0,0,1,1.643-1.643H30.71Z" transform="translate(-20.876 -31.729)" fill="#fff" stroke="#fff" stroke-width="0.4"/>
          <path id="Path_35" data-name="Path 35" d="M58.442,42.986a2.711,2.711,0,0,0-2.708-2.709h-1.91a.533.533,0,0,0-.533.533v.969H51.142v1.065h2.149v1.668H51.142v1.065h2.149v1.072a.533.533,0,0,0,.533.533h1.91a2.711,2.711,0,0,0,2.708-2.709v-.211H60.6V43.2H58.442Zm-1.065,1.487a1.645,1.645,0,0,1-1.643,1.643H54.356V41.342h1.377a1.645,1.645,0,0,1,1.643,1.643Z" transform="translate(-39.885 -31.729)" fill="#fff" stroke="#fff" stroke-width="0.4"/>
        </g>
      </g>
    </g>
  </g>
</svg>
