<svg xmlns="http://www.w3.org/2000/svg" width="32" height="32" viewBox="0 0 32 32">
  <g id="BlockExplorer" transform="translate(-5381 150)">
    <rect id="Rectangle_112" data-name="Rectangle 112" width="32" height="32" transform="translate(5381 -150)" fill="none"/>
    <g id="Globe" transform="translate(5370 -161)">
      <g id="Group_55" data-name="Group 55" transform="translate(15 15)">
        <path id="Path_21" data-name="Path 21" d="M27,967.362a12,12,0,0,0-.354,23.989c.116.012.235.011.354.011s.238,0,.354-.011A12,12,0,0,0,27,967.362Zm-.686,1.5v3.986H23.261a12.528,12.528,0,0,1,.482-1.189A5.129,5.129,0,0,1,26.314,968.862Zm1.371,0a5.129,5.129,0,0,1,2.571,2.8,12.528,12.528,0,0,1,.482,1.189H27.686Zm-4.1.439a9.607,9.607,0,0,0-1.082,1.757,14.224,14.224,0,0,0-.718,1.789H18.6A10.643,10.643,0,0,1,23.582,969.3Zm6.836,0a10.643,10.643,0,0,1,4.982,3.547H32.218a14.225,14.225,0,0,0-.718-1.789A9.608,9.608,0,0,0,30.418,969.3ZM17.7,974.219h3.707a21.963,21.963,0,0,0-.557,4.457H16.393A10.577,10.577,0,0,1,17.7,974.219Zm5.121,0h3.493v4.457H22.221A20.482,20.482,0,0,1,22.821,974.219Zm4.864,0h3.493a20.482,20.482,0,0,1,.6,4.457H27.686Zm4.907,0H36.3a10.576,10.576,0,0,1,1.307,4.457H33.15A21.963,21.963,0,0,0,32.593,974.219Zm-16.2,5.829H20.85a22.006,22.006,0,0,0,.557,4.457H17.689A10.582,10.582,0,0,1,16.393,980.048Zm5.829,0h4.093v4.457H22.821A20.407,20.407,0,0,1,22.221,980.048Zm5.464,0h4.093a20.407,20.407,0,0,1-.6,4.457H27.686Zm5.464,0h4.457a10.582,10.582,0,0,1-1.3,4.457H32.593A22.006,22.006,0,0,0,33.15,980.048ZM18.6,985.877h3.182a14.122,14.122,0,0,0,.718,1.779,9.724,9.724,0,0,0,1.093,1.779A10.633,10.633,0,0,1,18.6,985.877Zm4.661,0h3.054v4a5.2,5.2,0,0,1-2.571-2.818A12.374,12.374,0,0,1,23.261,985.877Zm4.425,0h3.054a12.374,12.374,0,0,1-.482,1.179,5.2,5.2,0,0,1-2.571,2.818Zm4.532,0H35.4a10.633,10.633,0,0,1-4.993,3.557,9.724,9.724,0,0,0,1.093-1.779A14.123,14.123,0,0,0,32.218,985.877Z" transform="translate(-15 -967.362)" fill="#fff"/>
      </g>
    </g>
  </g>
</svg>
