<svg xmlns="http://www.w3.org/2000/svg" width="32" height="32" viewBox="0 0 32 32">
  <g id="Download" transform="translate(-5547 150)">
    <rect id="Rectangle_115" data-name="Rectangle 115" width="32" height="32" transform="translate(5547 -150)" fill="none"/>
    <g id="Download-2" data-name="Download" transform="translate(5552.002 -145)">
      <path id="Path_27" data-name="Path 27" d="M11.414,0a.816.816,0,0,0-.8.816V.828h0v14.34L5.478,10.035a.816.816,0,1,0-1.153,1.154l6.524,6.524.009.008h0l.025.024h0l.034.029h0l.021.016h0l.039.027,0,0,.029.018,0,0,.034.019,0,0a.236.236,0,0,0,.029.014l0,0,.033.015,0,0,.036.013h.006l.029.01h.006l.036.009h0l.034.007h0l.035,0h0l.039,0h.084c.025,0,.049,0,.073,0h0l.056-.009h0l.044-.009h-.006l.036-.009h-.006l.054-.016h-.006l.035-.013,0,0a.473.473,0,0,0,.048-.021l0,0,.066-.033,0,0,0,0,0,0c.019-.011.034-.021.049-.031l0,0,.034-.024h0c.02-.015.037-.029.054-.043h0l0,0h0c.014-.011.026-.022.038-.034l6.523-6.523a.816.816,0,0,0-.568-1.4h-.024a.814.814,0,0,0-.561.246h0l-5.131,5.132V.818A.815.815,0,0,0,11.426,0h-.012ZM.825,21.213H.814a.816.816,0,0,0,0,1.631H22.038a.816.816,0,0,0,0-1.631H.825Z" fill="#fff" stroke="#fff" stroke-width="0.3"/>
    </g>
  </g>
</svg>
