<svg xmlns="http://www.w3.org/2000/svg" width="23" height="23" viewBox="0 0 23 23"><defs><style>.a{fill:#102c78;stroke:#103eb7;}.b{fill:#2357e3;}.c{stroke:none;}.d{fill:none;}</style></defs><g transform="translate(-574 -123)"><g class="a" transform="translate(574 123)"><rect class="c" width="23" height="23" rx="2"/><rect class="d" x="0.5" y="0.5" width="22" height="22" rx="1.5"/></g><g transform="translate(578 127)"><path class="b" d="M12.193,11.2c.274.274.5.177.5-.213V5.409a.705.705,0,0,1,.7-.709h0a.7.7,0,0,1,.7.706v7.986a.7.7,0,0,1-.706.706H5.406a.7.7,0,0,1-.706-.7h0a.708.708,0,0,1,.709-.7h5.575c.392,0,.485-.224.213-.5L1.906,2.9c-.274-.274-.5-.177-.5.213V8.69A.705.705,0,0,1,.7,9.4h0A.7.7,0,0,1,0,8.693V.706A.7.7,0,0,1,.706,0H8.693A.7.7,0,0,1,9.4.7h0a.708.708,0,0,1-.709.7H3.116c-.392,0-.485.224-.213.5Z" transform="translate(14.099) rotate(90)"/></g></g></svg>