<svg xmlns="http://www.w3.org/2000/svg" width="12" height="12" viewBox="0 0 12 12">
  <g id="HelpSelected" transform="translate(-180 -455)">
    <circle id="Ellipse_14" data-name="Ellipse 14" cx="6" cy="6" r="6" transform="translate(180 455)" fill="#b5b5b5"/>
    <path id="Path_40" data-name="Path 40" d="M1.71-2.839v-.105a3.246,3.246,0,0,1,.1-.865,1.291,1.291,0,0,1,.278-.521,2.137,2.137,0,0,1,.44-.36,2.924,2.924,0,0,0,.344-.257,1.1,1.1,0,0,0,.242-.3.741.741,0,0,0,.09-.364.685.685,0,0,0-.1-.375.684.684,0,0,0-.274-.248.831.831,0,0,0-.38-.087.854.854,0,0,0-.381.088.743.743,0,0,0-.295.26.807.807,0,0,0-.124.426H.38a1.834,1.834,0,0,1,.3-1.025,1.719,1.719,0,0,1,.747-.6,2.571,2.571,0,0,1,1.026-.2,2.752,2.752,0,0,1,1.091.2,1.7,1.7,0,0,1,.744.588,1.573,1.573,0,0,1,.27.927,1.631,1.631,0,0,1-.119.643,1.57,1.57,0,0,1-.333.5,2.536,2.536,0,0,1-.505.389,2.006,2.006,0,0,0-.4.3,1,1,0,0,0-.233.366,1.546,1.546,0,0,0-.079.512v.105ZM2.324-.855A.72.72,0,0,1,1.8-1.073.706.706,0,0,1,1.58-1.6.7.7,0,0,1,1.8-2.12a.723.723,0,0,1,.529-.217.72.72,0,0,1,.518.217.711.711,0,0,1,.226.521.721.721,0,0,1-.107.374.8.8,0,0,1-.271.27A.7.7,0,0,1,2.324-.855Z" transform="translate(183.532 465.113)" fill="#fff"/>
  </g>
</svg>
