<svg xmlns="http://www.w3.org/2000/svg" width="32" height="32" viewBox="0 0 32 32">
  <g id="MasterNodes" transform="translate(-5325 150)">
    <rect id="Rectangle_111" data-name="Rectangle 111" width="32" height="32" transform="translate(5325 -150)" fill="none"/>
    <g id="Node" transform="translate(5328.45 -146.55)">
      <path id="Path_7" data-name="Path 7" d="M1.46,14.756a3.109,3.109,0,0,0,5.023-3.494l3.64-3.64a4.7,4.7,0,0,1-.873-.679,4.7,4.7,0,0,1-.679-.873L4.93,9.71a3.112,3.112,0,0,0-3.47,5.047Zm1.335-3.082a1.235,1.235,0,1,1,0,1.747A1.23,1.23,0,0,1,2.794,11.675ZM10.34,23.637a3.105,3.105,0,1,0,.9-5.023L7.6,14.975a4.7,4.7,0,0,1-.679.873,4.7,4.7,0,0,1-.873.679l3.64,3.64A3.158,3.158,0,0,0,10.34,23.637Zm1.335-3.082a1.235,1.235,0,1,1,0,1.747A1.23,1.23,0,0,1,11.675,20.556ZM23.637,10.34a3.109,3.109,0,0,0-5.023,3.494l-3.64,3.64a4.461,4.461,0,0,1,1.553,1.553l3.64-3.64a3.109,3.109,0,0,0,3.47-5.047ZM22.3,13.422a1.235,1.235,0,1,1,0-1.747A1.23,1.23,0,0,1,22.3,13.422ZM18.153,9.273a4.7,4.7,0,0,1,.873-.679l-3.64-3.64a3.139,3.139,0,0,0-.631-3.494,3.105,3.105,0,1,0-.9,5.023l3.64,3.64A4.2,4.2,0,0,1,18.153,9.273ZM13.422,4.541a1.235,1.235,0,1,1,0-1.747A1.23,1.23,0,0,1,13.422,4.541Z" transform="translate(0 0)" fill="#fff"/>
    </g>
  </g>
</svg>
